<?xml version="1.0" standalone="no"?>
<!DOCTYPE svg PUBLIC "-//W3C//DTD SVG 20010904//EN"
 "http://www.w3.org/TR/2001/REC-SVG-20010904/DTD/svg10.dtd">
<svg version="1.0" xmlns="http://www.w3.org/2000/svg"
 width="500.000000pt" height="500.000000pt" viewBox="0 0 500.000000 500.000000"
 preserveAspectRatio="xMidYMid meet">
<metadata>
Created by potrace 1.14, written by Peter Selinger 2001-2017
</metadata>
<g transform="translate(0.000000,500.000000) scale(0.100000,-0.100000)"
fill="#000000" stroke="none">
<path d="M2040 4735 c-584 -100 -1036 -534 -1161 -1115 -31 -140 -33 -420 -6
-550 124 -586 544 -1007 1127 -1131 139 -29 379 -32 520 -5 80 16 215 54 283
81 14 6 11 -4 -13 -42 -61 -99 -75 -221 -41 -356 43 -167 128 -297 225 -346
25 -12 114 -39 199 -60 84 -22 176 -50 203 -64 124 -63 243 -194 319 -351 55
-112 56 -126 13 -126 -46 -1 -111 -32 -135 -66 -62 -86 -51 -247 21 -319 52
-52 120 -16 167 90 19 41 23 68 23 157 1 60 3 108 6 108 9 0 54 -33 68 -50 28
-34 76 -139 127 -281 57 -158 86 -217 130 -262 31 -30 83 -48 122 -41 50 9
143 69 143 93 0 17 -8 14 -48 -19 -59 -47 -107 -63 -147 -50 -67 22 -107 87
-180 290 -83 234 -122 301 -190 331 -39 17 -44 24 -69 93 -38 102 -129 238
-217 320 -85 81 -173 126 -304 157 -228 53 -292 85 -357 178 -82 117 -132 314
-110 426 6 31 21 77 33 103 l22 47 8 -76 c13 -127 49 -179 127 -179 72 0 161
62 183 127 9 29 8 39 -14 76 -26 43 -91 110 -140 142 l-27 17 105 69 c202 134
363 313 473 528 108 211 150 370 159 606 6 169 -8 290 -52 440 -153 529 -596
922 -1140 1010 -109 18 -351 18 -455 0z m460 -101 c330 -62 764 -330 856 -529
28 -59 30 -83 8 -113 -26 -37 -62 -28 -155 38 -303 215 -388 261 -695 374
-277 103 -330 142 -273 202 43 45 123 54 259 28z m1257 -4011 c14 -50 8 -166
-10 -219 -10 -29 -33 -69 -51 -90 -30 -35 -36 -38 -62 -29 -70 25 -103 190
-55 283 25 48 81 81 138 82 27 0 34 -5 40 -27z"/>
</g>
</svg>
